<svg width="264" height="264" viewBox="0 0 264 264" fill="none" xmlns="http://www.w3.org/2000/svg">
<path d="M64.5803 191.442C63.0764 192.769 60.7757 192.629 59.5085 191.075C48.9233 178.091 42.0056 162.482 39.5116 145.872C36.8376 128.063 39.3628 109.861 46.7836 93.453C54.2044 77.0447 66.2052 63.1281 81.3441 53.3754C96.483 43.6226 114.116 38.4486 132.124 38.4751C150.133 38.5015 167.75 43.7272 182.861 53.5243C197.971 63.3215 209.931 77.2732 217.303 93.7032C224.676 110.133 227.148 128.343 224.422 146.143C221.879 162.746 214.915 178.335 204.292 191.287C203.02 192.838 200.719 192.971 199.219 191.64V191.64C197.719 190.309 197.589 188.018 198.855 186.464C208.553 174.56 214.912 160.264 217.243 145.044C219.757 128.626 217.478 111.83 210.678 96.6764C203.878 81.5224 192.846 68.6541 178.91 59.6179C164.973 50.5816 148.723 45.7618 132.114 45.7374C115.504 45.713 99.2403 50.4852 85.2772 59.4805C71.314 68.4758 60.2452 81.3116 53.4007 96.4456C46.5561 111.58 44.2271 128.368 46.6934 144.794C48.9797 160.021 55.2967 174.335 64.9595 186.267C66.2216 187.826 66.0843 190.116 64.5803 191.442V191.442Z" fill="#D9D9D9"/>
<path d="M64.5803 191.442C63.0764 192.769 60.7754 192.629 59.5082 191.075C45.483 173.872 38.0081 152.201 38.4976 129.932C39.0137 106.45 48.3474 84.0228 64.643 67.1081C80.9386 50.1933 103.003 40.0302 126.449 38.6391C148.684 37.3199 170.618 43.9819 188.332 57.3561C189.933 58.5645 190.158 60.8587 188.888 62.411V62.411C187.619 63.9634 185.335 64.1858 183.731 62.9826C167.432 50.7603 147.293 44.6775 126.879 45.8887C105.254 47.1717 84.9031 56.5456 69.8731 72.1467C54.843 87.7478 46.2342 108.434 45.7581 130.092C45.3087 150.537 52.1379 170.435 64.9593 186.267C66.2214 187.826 66.0843 190.116 64.5803 191.442V191.442Z" fill="url(#paint0_radial_7_2)"/>
<circle cx="8" cy="8" r="8" transform="matrix(-1 0 0 1 193 52)" fill="#1DFAC7"/>
<defs>
<radialGradient id="paint0_radial_7_2" cx="0" cy="0" r="1" gradientUnits="userSpaceOnUse" gradientTransform="translate(166.065 74.9286) rotate(149.598) scale(180.946)">
<stop stop-color="#00FFC5"/>
<stop offset="1" stop-color="#00FFC5" stop-opacity="0"/>
</radialGradient>
</defs>
</svg>
